<?xml version="1.0" encoding="UTF-8" standalone="no"?>
<!DOCTYPE svg PUBLIC "-//W3C//DTD SVG 1.1//EN" "http://www.w3.org/Graphics/SVG/1.1/DTD/svg11.dtd">
<svg width="100%" height="100%" viewBox="0 0 12 12" version="1.1" xmlns="http://www.w3.org/2000/svg" xmlns:xlink="http://www.w3.org/1999/xlink" xml:space="preserve" xmlns:serif="http://www.serif.com/" style="fill-rule:evenodd;clip-rule:evenodd;stroke-linejoin:round;stroke-miterlimit:2;">
    <g transform="matrix(0.24,0,0,0.24,0,0)">
        <g transform="matrix(0.970603,0,0,0.970603,-266.232,-265.704)">
            <g transform="matrix(0.140408,0,0,0.140408,274.465,274.056)">
                <circle cx="181.763" cy="181.287" r="178.052" style="fill:rgb(215,215,215);"/>
            </g>
            <g transform="matrix(0.0764552,0,0,0.0943946,276.871,275.805)">
                <path d="M326.734,152.723L326.734,348.108C326.734,359.158 315.658,368.129 302.016,368.129C288.374,368.129 277.298,359.158 277.298,348.108L277.298,152.723C277.298,141.673 288.374,132.702 302.016,132.702C315.658,132.702 326.734,141.673 326.734,152.723Z" style="fill:white;"/>
            </g>
            <g transform="matrix(0.054062,-0.054062,0.0437171,0.0437171,276.541,299.073)">
                <path d="M326.734,163.27L326.734,337.562C326.734,354.432 315.658,368.129 302.016,368.129C288.374,368.129 277.298,354.432 277.298,337.562L277.298,163.27C277.298,146.399 288.374,132.702 302.016,132.702C315.658,132.702 326.734,146.399 326.734,163.27Z" style="fill:white;"/>
            </g>
            <g transform="matrix(0.054062,0.054062,-0.0437171,0.0437171,290.806,266.401)">
                <path d="M326.734,163.27L326.734,337.562C326.734,354.432 315.658,368.129 302.016,368.129C288.374,368.129 277.298,354.432 277.298,337.562L277.298,163.27C277.298,146.399 288.374,132.702 302.016,132.702C315.658,132.702 326.734,146.399 326.734,163.27Z" style="fill:white;"/>
            </g>
        </g>
    </g>
</svg>
